<svg xmlns="http://www.w3.org/2000/svg" width="167.41" height="24.958"><defs><clipPath id="a"><path class="a" d="M0 0h167.41v24.958H0z"></path></clipPath><style>.a{fill:#fff}</style></defs><g clip-path="url(#a)"><path class="a" d="M23.78 5.675a8.389 8.389 0 01-.89 3.411 13.31 13.31 0 01-3.974 4.934c-.818.619-1.13.653-1.934.024a11.747 11.747 0 01-4.846-7.754A5.563 5.563 0 0116.402.2a5.807 5.807 0 017.192 4.188c.1.42.125.858.186 1.286m-5.939-2.443A2.617 2.617 0 0015.149 5.8a2.686 2.686 0 002.669 2.624 2.613 2.613 0 002.639-2.58 2.555 2.555 0 00-2.616-2.613m-7.108 21.726a9.5 9.5 0 01-6.776-2.788 21.885 21.885 0 01-2-2.345 1.4 1.4 0 01.3-2.106 1.473 1.473 0 012.081.449 10.329 10.329 0 002.948 2.943 5.788 5.788 0 007.33-.828 17.828 17.828 0 001.856-2.135 1.5 1.5 0 011.549-.648 1.35 1.35 0 011.154 1.243 1.365 1.365 0 01-.175.839 11.117 11.117 0 01-6.4 5.053 16.682 16.682 0 01-1.867.323M3.071 8.729a3.025 3.025 0 11.055-6.047 3.024 3.024 0 11-.055 6.047m96.598 1.69a6.646 6.646 0 015.348-2.018 6.1 6.1 0 015.071 2.672 11.933 11.933 0 01.884-.953 7.293 7.293 0 014.308-1.7 7.529 7.529 0 013.573.495 5.671 5.671 0 013.542 4.665 16.318 16.318 0 01.173 2.432c.02 2.732 0 5.463.017 8.2 0 .37-.1.485-.482.478-1.191-.02-2.386-.007-3.577-.007-.568 0-.568 0-.568-.544 0-2.62.009-5.239-.009-7.859a7.94 7.94 0 00-.18-1.626 2.98 2.98 0 00-3.58-2.279 3.407 3.407 0 00-2.941 3.1 12.451 12.451 0 00-.086 1.385c-.007 2.451-.011 4.9 0 7.35 0 .363-.092.491-.474.484a87.802 87.802 0 00-3.665 0c-.414.011-.494-.135-.493-.509.015-2.774.022-5.547 0-8.323a4.037 4.037 0 00-.844-2.637 3.514 3.514 0 00-5.427.932 5.845 5.845 0 00-.5 2.542c-.02 2.463-.015 4.929 0 7.392 0 .394-.094.544-.518.535a94.839 94.839 0 00-3.578 0c-.333 0-.48-.071-.478-.442q.014-7.563 0-15.124c0-.314.072-.451.426-.445 1.18.022 2.358.016 3.536 0 .311 0 .437.082.421.405-.022.447-.006.9-.006 1.343l.107.064m47.886 12.519c0 .443-.017.889 0 1.332.015.316-.1.412-.417.409q-1.77-.022-3.538 0c-.3 0-.43-.066-.43-.4q.014-10.689 0-21.376c0-.3.1-.391.4-.387 1.25.011 2.5.016 3.749 0 .373-.007.487.1.483.474-.017 2.268-.007 4.535-.007 6.8v.577c.195-.157.312-.239.415-.338a6.127 6.127 0 014.016-1.591 8.074 8.074 0 015.771 1.83 7.33 7.33 0 012.665 4.843 9.337 9.337 0 01-.616 5.286 7.463 7.463 0 01-5.681 4.363 8.493 8.493 0 01-3.619-.077 5.534 5.534 0 01-2.818-1.568c-.075-.078-.165-.142-.246-.214l-.129.035m4.382-1.743a3.968 3.968 0 003.957-2.912 5.552 5.552 0 00.057-3.031 4.114 4.114 0 00-3.675-3.076 4.029 4.029 0 00-4.24 2.639 5.645 5.645 0 00-.252 2.7 3.988 3.988 0 004.154 3.688m-63.241 1.676c-.09.078-.186.151-.27.237a5.985 5.985 0 01-4.122 1.734 8.659 8.659 0 01-4.538-.847 7.443 7.443 0 01-4.073-5.869 9.077 9.077 0 01.459-4.81 7.348 7.348 0 016.2-4.807 7.084 7.084 0 015.065.911c.371.245.706.546 1.141.887 0-.5.015-.912-.006-1.325-.015-.3.1-.389.4-.387q1.916.016 3.834 0c.29 0 .4.084.4.383q-.011 7.645 0 15.288c0 .323-.116.409-.423.405q-1.767-.022-3.536 0c-.309 0-.436-.086-.419-.407.022-.447.006-.9.006-1.343l-.114-.051m-8.394-6.213a4.2 4.2 0 007.55 2.827 4.967 4.967 0 00.68-4.12 4.174 4.174 0 00-8.23 1.294m61.477-.063a8.106 8.106 0 01-7.245 8.178 10.285 10.285 0 01-5.455-.586 7.662 7.662 0 01-5-6.491 7.757 7.757 0 013.1-7.544 8.976 8.976 0 014.835-1.747 9.54 9.54 0 016.157 1.451 7.485 7.485 0 013.492 5.442c.061.429.077.865.116 1.3m-8.884-4.467a3.969 3.969 0 00-3.724 2.224 5.2 5.2 0 00-.474 2.54 4.2 4.2 0 007.756 2.294 5.326 5.326 0 00.6-3.124 4.094 4.094 0 00-4.159-3.934m-88.02.278l-3.534 1.889c-.1-.131-.178-.228-.246-.33a4.078 4.078 0 00-4.395-1.772 3.964 3.964 0 00-3.268 3.35 4.785 4.785 0 00.9 4.14 4.065 4.065 0 002.968 1.429 4 4 0 003.9-1.982c.029-.046.07-.086.142-.173 1.163.63 2.327 1.257 3.516 1.9a5.622 5.622 0 01-1.832 2.323 8.31 8.31 0 01-4.85 1.679 9.923 9.923 0 01-5.318-1.106 7.577 7.577 0 01-4.145-6.06 7.751 7.751 0 012.522-7.055 9.1 9.1 0 015.393-2.227 9.638 9.638 0 014.931.746 6.291 6.291 0 013.091 2.788c.072.133.134.274.224.46m25.627.088v3.027c0 1.239.011 2.478 0 3.715a1.91 1.91 0 002.446 1.991 11.634 11.634 0 001.505-.44c.263.679.542 1.407.823 2.137.044.119.083.239.127.358.255.673.259.679-.415.985a6.758 6.758 0 01-2.674.58 7.953 7.953 0 01-3.613-.578 4.623 4.623 0 01-2.726-3.717 9.5 9.5 0 01-.1-1.427q-.011-6.755 0-13.511c0-.562 0-.562.553-.562 1.206 0 2.413.011 3.619-.007.344-.005.474.088.465.449-.022 1.027.006 2.055-.015 3.082-.007.341.118.44.441.436 1.022-.011 2.046.009 3.066-.011.373-.007.531.077.516.489-.033.843-.028 1.69 0 2.533.007.363-.088.495-.474.485-1.007-.026-2.016-.009-3.023-.009zm-6.742 8.245c.377.989.755 1.956 1.1 2.934a.468.468 0 01-.217.4 11.713 11.713 0 01-2.376.724 8.3 8.3 0 01-3.7-.31 4.723 4.723 0 01-3.33-4.447c-.055-4.87-.061-9.739-.1-14.609 0-.3.1-.392.393-.389 1.279.011 2.558.015 3.836 0 .325 0 .415.113.412.418-.015 1.015.007 2.029-.013 3.042-.007.394.145.516.526.509 1.024-.018 2.046 0 3.068-.011.309 0 .43.091.425.411-.017.9-.013 1.8 0 2.7 0 .294-.1.392-.4.389-1.066-.013-2.13.005-3.194-.013-.322 0-.423.109-.423.414.007 2.084-.017 4.168.011 6.252.024 1.69 1.277 2.493 3.018 1.965.307-.093.6-.237.954-.381m-16.439-3.927c0-2.462.009-4.925-.009-7.387 0-.4.116-.5.507-.5 1.29.022 2.58.016 3.873 0 .312 0 .417.089.417.407q-.011 7.451 0 14.9c0 .338-.1.436-.439.431-1.29-.016-2.58-.02-3.873 0-.369.005-.487-.1-.485-.474.017-2.462.009-4.923.009-7.387m119.999-.002c0 2.449-.011 4.9.006 7.345 0 .392-.086.54-.511.531a128.69 128.69 0 00-3.83-.005c-.318 0-.458-.058-.456-.416q.014-7.448 0-14.9c0-.349.125-.425.448-.422 1.307.015 2.612.016 3.917 0 .344 0 .432.113.432.44-.013 2.476-.006 4.953-.006 7.429m.099-11.782a2.472 2.472 0 01-4.94-.049 2.472 2.472 0 014.944.049M49.762 7.447a2.406 2.406 0 01-2.455-2.425 2.466 2.466 0 112.455 2.425"></path></g></svg>